<mxfile host="app.diagrams.net" agent="Mozilla/5.0 (Windows NT 10.0; Win64; x64) AppleWebKit/537.36 (KHTML, like Gecko) Chrome/136.0.0.0 Safari/537.36 Edg/136.0.0.0" version="26.2.14">
  <diagram name="Страница — 1" id="hGediK6cKtecDrNxz5kt">
    <mxGraphModel dx="1546" dy="866" grid="1" gridSize="10" guides="1" tooltips="1" connect="1" arrows="1" fold="1" page="1" pageScale="1" pageWidth="827" pageHeight="1169" math="0" shadow="0">
      <root>
        <mxCell id="0" />
        <mxCell id="1" parent="0" />
        <mxCell id="lXRl14nX80XDygqNHP0N-2" value="&lt;font&gt;Ликвидация академических задолженностей&lt;/font&gt;" style="swimlane;horizontal=0;whiteSpace=wrap;html=1;startSize=40;fontSize=14;fontFamily=Times New Roman;" parent="1" vertex="1">
          <mxGeometry x="370" y="80" width="2390" height="990" as="geometry" />
        </mxCell>
        <mxCell id="lXRl14nX80XDygqNHP0N-7" style="edgeStyle=orthogonalEdgeStyle;rounded=0;orthogonalLoop=1;jettySize=auto;html=1;entryX=0;entryY=0.5;entryDx=0;entryDy=0;fontSize=14;fontFamily=Times New Roman;" parent="lXRl14nX80XDygqNHP0N-2" source="lXRl14nX80XDygqNHP0N-1" target="lXRl14nX80XDygqNHP0N-6" edge="1">
          <mxGeometry relative="1" as="geometry" />
        </mxCell>
        <mxCell id="lXRl14nX80XDygqNHP0N-1" value="" style="ellipse;whiteSpace=wrap;html=1;aspect=fixed;fontSize=14;fontFamily=Times New Roman;" parent="lXRl14nX80XDygqNHP0N-2" vertex="1">
          <mxGeometry x="100" y="79" width="40" height="40" as="geometry" />
        </mxCell>
        <mxCell id="lXRl14nX80XDygqNHP0N-13" style="edgeStyle=orthogonalEdgeStyle;rounded=0;orthogonalLoop=1;jettySize=auto;html=1;entryX=0;entryY=0.5;entryDx=0;entryDy=0;fontSize=14;fontFamily=Times New Roman;" parent="lXRl14nX80XDygqNHP0N-2" source="lXRl14nX80XDygqNHP0N-6" target="lXRl14nX80XDygqNHP0N-28" edge="1">
          <mxGeometry relative="1" as="geometry">
            <mxPoint x="480" y="100" as="targetPoint" />
          </mxGeometry>
        </mxCell>
        <mxCell id="lXRl14nX80XDygqNHP0N-6" value="" style="rounded=1;whiteSpace=wrap;html=1;fontSize=14;fontFamily=Times New Roman;" parent="lXRl14nX80XDygqNHP0N-2" vertex="1">
          <mxGeometry x="220" y="54" width="180" height="90" as="geometry" />
        </mxCell>
        <mxCell id="lXRl14nX80XDygqNHP0N-8" value="Устанавливается наличие академических задолженностей" style="text;html=1;align=center;verticalAlign=middle;whiteSpace=wrap;rounded=0;fontSize=14;fontFamily=Times New Roman;" parent="lXRl14nX80XDygqNHP0N-2" vertex="1">
          <mxGeometry x="310" y="80" width="60" height="30" as="geometry" />
        </mxCell>
        <mxCell id="lXRl14nX80XDygqNHP0N-9" value="" style="shape=actor;whiteSpace=wrap;html=1;fillColor=#000000;fontSize=14;fontFamily=Times New Roman;" parent="lXRl14nX80XDygqNHP0N-2" vertex="1">
          <mxGeometry x="230" y="65" width="40" height="60" as="geometry" />
        </mxCell>
        <mxCell id="lXRl14nX80XDygqNHP0N-19" value="" style="endArrow=none;html=1;rounded=0;fontSize=14;fontFamily=Times New Roman;" parent="lXRl14nX80XDygqNHP0N-2" edge="1">
          <mxGeometry width="50" height="50" relative="1" as="geometry">
            <mxPoint x="40" y="640" as="sourcePoint" />
            <mxPoint x="80" y="640" as="targetPoint" />
          </mxGeometry>
        </mxCell>
        <mxCell id="lXRl14nX80XDygqNHP0N-20" value="&lt;span style=&quot;font-size: 15px; caret-color: rgb(0, 0, 0); white-space-collapse: preserve; background-color: rgb(255, 255, 255);&quot;&gt;Фиксирование академических задолженностей&lt;/span&gt;" style="text;html=1;align=center;verticalAlign=middle;whiteSpace=wrap;rounded=0;rotation=270;fontSize=14;fontFamily=Times New Roman;" parent="lXRl14nX80XDygqNHP0N-2" vertex="1">
          <mxGeometry x="-95" y="145" width="310" height="30" as="geometry" />
        </mxCell>
        <mxCell id="lXRl14nX80XDygqNHP0N-21" value="&lt;span style=&quot;color: rgb(0, 0, 0); font-style: normal; font-variant-ligatures: normal; font-variant-caps: normal; font-weight: 400; letter-spacing: normal; orphans: 2; text-indent: 0px; text-transform: none; widows: 2; word-spacing: 0px; -webkit-text-stroke-width: 0px; caret-color: rgb(0, 0, 0); white-space: pre-wrap; background-color: rgb(255, 255, 255); text-decoration-thickness: initial; text-decoration-style: initial; text-decoration-color: initial; float: none; display: inline !important;&quot;&gt;&lt;font&gt;Документооборот по студентам&lt;/font&gt;&lt;/span&gt;" style="text;html=1;align=center;verticalAlign=middle;whiteSpace=wrap;rounded=0;rotation=270;fontSize=14;fontFamily=Times New Roman;" parent="lXRl14nX80XDygqNHP0N-2" vertex="1">
          <mxGeometry x="-65" y="465" width="250" height="30" as="geometry" />
        </mxCell>
        <mxCell id="lXRl14nX80XDygqNHP0N-22" value="&lt;span&gt;Завершение текущей сессии&lt;/span&gt;" style="text;html=1;align=center;verticalAlign=middle;whiteSpace=wrap;rounded=0;rotation=270;fontSize=14;fontFamily=Times New Roman;" parent="lXRl14nX80XDygqNHP0N-2" vertex="1">
          <mxGeometry x="-45" y="785" width="210" height="30" as="geometry" />
        </mxCell>
        <mxCell id="zuz1BJk3kpaSrDafjvJY-3" style="edgeStyle=orthogonalEdgeStyle;rounded=0;orthogonalLoop=1;jettySize=auto;html=1;" parent="lXRl14nX80XDygqNHP0N-2" source="lXRl14nX80XDygqNHP0N-28" target="lXRl14nX80XDygqNHP0N-33" edge="1">
          <mxGeometry relative="1" as="geometry">
            <Array as="points">
              <mxPoint x="590" y="380" />
              <mxPoint x="310" y="380" />
            </Array>
          </mxGeometry>
        </mxCell>
        <mxCell id="lXRl14nX80XDygqNHP0N-28" value="" style="rounded=1;whiteSpace=wrap;html=1;fontSize=14;fontFamily=Times New Roman;" parent="lXRl14nX80XDygqNHP0N-2" vertex="1">
          <mxGeometry x="500" y="54" width="180" height="90" as="geometry" />
        </mxCell>
        <mxCell id="lXRl14nX80XDygqNHP0N-30" value="Определение студентов по возникшей академической задолженности" style="text;html=1;align=center;verticalAlign=middle;whiteSpace=wrap;rounded=0;fontSize=14;fontFamily=Times New Roman;" parent="lXRl14nX80XDygqNHP0N-2" vertex="1">
          <mxGeometry x="530" y="84" width="150" height="30" as="geometry" />
        </mxCell>
        <mxCell id="lXRl14nX80XDygqNHP0N-33" value="" style="rounded=1;whiteSpace=wrap;html=1;fontSize=14;fontFamily=Times New Roman;" parent="lXRl14nX80XDygqNHP0N-2" vertex="1">
          <mxGeometry x="220" y="498" width="180" height="90" as="geometry" />
        </mxCell>
        <mxCell id="lXRl14nX80XDygqNHP0N-61" value="&lt;font&gt;&lt;span&gt;Формируется документ &quot;Направление на пересдачу&quot;&lt;/span&gt;&lt;/font&gt;" style="text;html=1;align=center;verticalAlign=middle;whiteSpace=wrap;rounded=0;fontSize=14;fontFamily=Times New Roman;" parent="lXRl14nX80XDygqNHP0N-2" vertex="1">
          <mxGeometry x="260" y="525" width="140" height="30" as="geometry" />
        </mxCell>
        <mxCell id="8SZdbYfzi0waTWHuSit--15" style="edgeStyle=orthogonalEdgeStyle;rounded=0;orthogonalLoop=1;jettySize=auto;html=1;entryX=0;entryY=0.5;entryDx=0;entryDy=0;fontSize=14;fontFamily=Times New Roman;" parent="lXRl14nX80XDygqNHP0N-2" source="lXRl14nX80XDygqNHP0N-62" target="8SZdbYfzi0waTWHuSit--7" edge="1">
          <mxGeometry relative="1" as="geometry" />
        </mxCell>
        <mxCell id="lXRl14nX80XDygqNHP0N-62" value="" style="rounded=1;whiteSpace=wrap;html=1;fontSize=14;fontFamily=Times New Roman;" parent="lXRl14nX80XDygqNHP0N-2" vertex="1">
          <mxGeometry x="984" y="495" width="180" height="90" as="geometry" />
        </mxCell>
        <mxCell id="lXRl14nX80XDygqNHP0N-64" value="&lt;font&gt;Составляется документ &quot;&lt;/font&gt;&lt;span style=&quot;white-space-collapse: preserve; text-align: start; caret-color: rgb(51, 144, 236); background-color: rgb(255, 255, 255);&quot;&gt;Ведомость о системе академической задолженности&lt;/span&gt;&lt;font&gt;&quot;&lt;/font&gt;" style="text;html=1;align=center;verticalAlign=middle;whiteSpace=wrap;rounded=0;fontSize=14;fontFamily=Times New Roman;" parent="lXRl14nX80XDygqNHP0N-2" vertex="1">
          <mxGeometry x="1024" y="525" width="136" height="30" as="geometry" />
        </mxCell>
        <mxCell id="lXRl14nX80XDygqNHP0N-65" value="" style="shape=actor;whiteSpace=wrap;html=1;fillColor=#000000;fontSize=14;fontFamily=Times New Roman;" parent="lXRl14nX80XDygqNHP0N-2" vertex="1">
          <mxGeometry x="230" y="510" width="40" height="60" as="geometry" />
        </mxCell>
        <mxCell id="t-Ad2HWrcUex2jGAyZYw-2" style="edgeStyle=orthogonalEdgeStyle;rounded=0;orthogonalLoop=1;jettySize=auto;html=1;" parent="lXRl14nX80XDygqNHP0N-2" source="lXRl14nX80XDygqNHP0N-69" target="t-Ad2HWrcUex2jGAyZYw-1" edge="1">
          <mxGeometry relative="1" as="geometry">
            <Array as="points">
              <mxPoint x="2150" y="85" />
            </Array>
          </mxGeometry>
        </mxCell>
        <mxCell id="lXRl14nX80XDygqNHP0N-69" value="" style="rounded=1;whiteSpace=wrap;html=1;fontSize=14;fontFamily=Times New Roman;" parent="lXRl14nX80XDygqNHP0N-2" vertex="1">
          <mxGeometry x="1930" y="40" width="180" height="90" as="geometry" />
        </mxCell>
        <mxCell id="lXRl14nX80XDygqNHP0N-73" value="" style="shape=actor;whiteSpace=wrap;html=1;fillColor=#000000;fontSize=14;fontFamily=Times New Roman;" parent="lXRl14nX80XDygqNHP0N-2" vertex="1">
          <mxGeometry x="1940" y="53" width="40" height="60" as="geometry" />
        </mxCell>
        <mxCell id="lXRl14nX80XDygqNHP0N-74" value="&lt;span style=&quot;text-align: start; caret-color: rgb(51, 144, 236); white-space-collapse: preserve; background-color: rgb(255, 255, 255);&quot;&gt;Составляется документ &quot;Рекомендации по студентам&quot;&lt;/span&gt;" style="text;html=1;align=center;verticalAlign=middle;whiteSpace=wrap;rounded=0;fontSize=14;fontFamily=Times New Roman;" parent="lXRl14nX80XDygqNHP0N-2" vertex="1">
          <mxGeometry x="1980" y="65" width="130" height="30" as="geometry" />
        </mxCell>
        <mxCell id="lXRl14nX80XDygqNHP0N-88" value="" style="ellipse;whiteSpace=wrap;html=1;aspect=fixed;fontSize=14;fontFamily=Times New Roman;" parent="lXRl14nX80XDygqNHP0N-2" vertex="1">
          <mxGeometry x="2270" y="800" width="40" height="40" as="geometry" />
        </mxCell>
        <mxCell id="jJLaCsf0zoLCCWyRsOxb-1" value="" style="shape=image;html=1;verticalAlign=top;verticalLabelPosition=bottom;labelBackgroundColor=#ffffff;imageAspect=0;aspect=fixed;image=https://cdn0.iconfinder.com/data/icons/phosphor-fill-vol-3/256/hand-fill-128.png;direction=south;fontSize=14;fontFamily=Times New Roman;" parent="lXRl14nX80XDygqNHP0N-2" vertex="1">
          <mxGeometry x="500" y="70" width="58" height="58" as="geometry" />
        </mxCell>
        <mxCell id="e4gL7JqhmdOOGmR1RSHR-9" style="edgeStyle=orthogonalEdgeStyle;rounded=0;orthogonalLoop=1;jettySize=auto;html=1;entryX=0.5;entryY=1;entryDx=0;entryDy=0;fontSize=14;fontFamily=Times New Roman;" parent="lXRl14nX80XDygqNHP0N-2" source="jJLaCsf0zoLCCWyRsOxb-5" target="jJLaCsf0zoLCCWyRsOxb-16" edge="1">
          <mxGeometry relative="1" as="geometry" />
        </mxCell>
        <mxCell id="jJLaCsf0zoLCCWyRsOxb-5" value="" style="rounded=1;whiteSpace=wrap;html=1;fontSize=14;fontFamily=Times New Roman;" parent="lXRl14nX80XDygqNHP0N-2" vertex="1">
          <mxGeometry x="1700" y="501" width="180" height="90" as="geometry" />
        </mxCell>
        <mxCell id="jJLaCsf0zoLCCWyRsOxb-15" value="&lt;span style=&quot;text-align: start; caret-color: rgb(51, 144, 236); white-space-collapse: preserve; background-color: rgb(255, 255, 255);&quot;&gt;Формируется документ &quot;Индивидуальный план ликвидации задолженностей&quot;&lt;/span&gt;" style="text;html=1;align=center;verticalAlign=middle;whiteSpace=wrap;rounded=0;fontSize=14;fontFamily=Times New Roman;" parent="lXRl14nX80XDygqNHP0N-2" vertex="1">
          <mxGeometry x="1750" y="529" width="130" height="30" as="geometry" />
        </mxCell>
        <mxCell id="xGasRs4YRxVdpPezn0ka-2" style="edgeStyle=orthogonalEdgeStyle;rounded=0;orthogonalLoop=1;jettySize=auto;html=1;entryX=0.5;entryY=1;entryDx=0;entryDy=0;fontSize=14;" parent="lXRl14nX80XDygqNHP0N-2" source="jJLaCsf0zoLCCWyRsOxb-16" target="lXRl14nX80XDygqNHP0N-69" edge="1">
          <mxGeometry relative="1" as="geometry" />
        </mxCell>
        <mxCell id="jJLaCsf0zoLCCWyRsOxb-16" value="" style="rounded=1;whiteSpace=wrap;html=1;fontSize=14;fontFamily=Times New Roman;" parent="lXRl14nX80XDygqNHP0N-2" vertex="1">
          <mxGeometry x="1700" y="169" width="180" height="90" as="geometry" />
        </mxCell>
        <mxCell id="jJLaCsf0zoLCCWyRsOxb-18" value="&lt;span&gt;Составляется документ &quot;&lt;/span&gt;&lt;span style=&quot;text-align: start; caret-color: rgb(51, 144, 236); white-space-collapse: preserve; background-color: rgb(255, 255, 255);&quot;&gt;Ведомость о системе академической задолженности&amp;nbsp;для студентов с ИОМ&lt;/span&gt;&lt;span&gt;&quot;&lt;/span&gt;" style="text;html=1;align=center;verticalAlign=middle;whiteSpace=wrap;rounded=0;fontSize=14;fontFamily=Times New Roman;" parent="lXRl14nX80XDygqNHP0N-2" vertex="1">
          <mxGeometry x="1723" y="200" width="167" height="30" as="geometry" />
        </mxCell>
        <mxCell id="8SZdbYfzi0waTWHuSit--2" value="" style="shape=actor;whiteSpace=wrap;html=1;fillColor=#000000;fontSize=14;fontFamily=Times New Roman;" parent="lXRl14nX80XDygqNHP0N-2" vertex="1">
          <mxGeometry x="988" y="510" width="40" height="60" as="geometry" />
        </mxCell>
        <mxCell id="8SZdbYfzi0waTWHuSit--7" value="" style="triangle;whiteSpace=wrap;html=1;direction=north;fontSize=14;fontFamily=Times New Roman;" parent="lXRl14nX80XDygqNHP0N-2" vertex="1">
          <mxGeometry x="1170" y="409" width="80" height="60" as="geometry" />
        </mxCell>
        <mxCell id="8SZdbYfzi0waTWHuSit--12" style="edgeStyle=orthogonalEdgeStyle;rounded=0;orthogonalLoop=1;jettySize=auto;html=1;entryX=0.006;entryY=0.455;entryDx=0;entryDy=0;entryPerimeter=0;fontSize=14;fontFamily=Times New Roman;" parent="lXRl14nX80XDygqNHP0N-2" source="8SZdbYfzi0waTWHuSit--7" target="lXRl14nX80XDygqNHP0N-69" edge="1">
          <mxGeometry relative="1" as="geometry">
            <Array as="points">
              <mxPoint x="1210" y="81" />
            </Array>
          </mxGeometry>
        </mxCell>
        <mxCell id="8SZdbYfzi0waTWHuSit--16" value="&lt;span&gt;Получена неудовлетворительная оценка&lt;/span&gt;" style="text;html=1;align=center;verticalAlign=middle;whiteSpace=wrap;rounded=0;fontSize=14;fontFamily=Times New Roman;" parent="lXRl14nX80XDygqNHP0N-2" vertex="1">
          <mxGeometry x="1220" y="390" width="201" height="30" as="geometry" />
        </mxCell>
        <mxCell id="8SZdbYfzi0waTWHuSit--17" value="&lt;span&gt;Получена удовлетворительная оценка&lt;/span&gt;" style="text;html=1;align=center;verticalAlign=middle;whiteSpace=wrap;rounded=0;rotation=270;fontSize=14;fontFamily=Times New Roman;" parent="lXRl14nX80XDygqNHP0N-2" vertex="1">
          <mxGeometry x="1090" y="284" width="201" height="30" as="geometry" />
        </mxCell>
        <mxCell id="8SZdbYfzi0waTWHuSit--18" value="" style="rounded=1;whiteSpace=wrap;html=1;fontSize=14;fontFamily=Times New Roman;" parent="lXRl14nX80XDygqNHP0N-2" vertex="1">
          <mxGeometry x="1440" y="510" width="180" height="90" as="geometry" />
        </mxCell>
        <mxCell id="8SZdbYfzi0waTWHuSit--20" style="edgeStyle=orthogonalEdgeStyle;rounded=0;orthogonalLoop=1;jettySize=auto;html=1;entryX=0.001;entryY=0.566;entryDx=0;entryDy=0;entryPerimeter=0;fontSize=14;fontFamily=Times New Roman;" parent="lXRl14nX80XDygqNHP0N-2" source="8SZdbYfzi0waTWHuSit--7" target="8SZdbYfzi0waTWHuSit--18" edge="1">
          <mxGeometry relative="1" as="geometry">
            <Array as="points">
              <mxPoint x="1410" y="420" />
              <mxPoint x="1410" y="561" />
              <mxPoint x="1421" y="561" />
            </Array>
          </mxGeometry>
        </mxCell>
        <mxCell id="8SZdbYfzi0waTWHuSit--21" value="" style="shape=actor;whiteSpace=wrap;html=1;fillColor=#000000;fontSize=14;fontFamily=Times New Roman;" parent="lXRl14nX80XDygqNHP0N-2" vertex="1">
          <mxGeometry x="1450" y="518" width="40" height="60" as="geometry" />
        </mxCell>
        <mxCell id="8SZdbYfzi0waTWHuSit--22" value="&lt;font&gt;Составляется документ &quot;&lt;/font&gt;&lt;span&gt;Заявление на продление сроков ликвидации задолженности&lt;/span&gt;&lt;font&gt;&quot;&lt;/font&gt;" style="text;html=1;align=center;verticalAlign=middle;whiteSpace=wrap;rounded=0;fontSize=14;fontFamily=Times New Roman;" parent="lXRl14nX80XDygqNHP0N-2" vertex="1">
          <mxGeometry x="1483" y="540" width="140" height="30" as="geometry" />
        </mxCell>
        <mxCell id="8SZdbYfzi0waTWHuSit--23" value="" style="shape=actor;whiteSpace=wrap;html=1;fillColor=#000000;fontSize=14;fontFamily=Times New Roman;" parent="lXRl14nX80XDygqNHP0N-2" vertex="1">
          <mxGeometry x="1705" y="183" width="40" height="60" as="geometry" />
        </mxCell>
        <mxCell id="8SZdbYfzi0waTWHuSit--28" style="edgeStyle=orthogonalEdgeStyle;rounded=0;orthogonalLoop=1;jettySize=auto;html=1;entryX=0;entryY=0.6;entryDx=0;entryDy=0;entryPerimeter=0;fontSize=14;fontFamily=Times New Roman;" parent="lXRl14nX80XDygqNHP0N-2" source="8SZdbYfzi0waTWHuSit--18" target="jJLaCsf0zoLCCWyRsOxb-5" edge="1">
          <mxGeometry relative="1" as="geometry" />
        </mxCell>
        <mxCell id="8SZdbYfzi0waTWHuSit--29" value="" style="shape=image;html=1;verticalAlign=top;verticalLabelPosition=bottom;labelBackgroundColor=#ffffff;imageAspect=0;aspect=fixed;image=https://cdn0.iconfinder.com/data/icons/phosphor-fill-vol-3/256/hand-fill-128.png;direction=south;fontSize=14;fontFamily=Times New Roman;" parent="lXRl14nX80XDygqNHP0N-2" vertex="1">
          <mxGeometry x="1700" y="519" width="58" height="58" as="geometry" />
        </mxCell>
        <mxCell id="lXRl14nX80XDygqNHP0N-17" value="" style="endArrow=none;html=1;rounded=0;fontSize=14;fontFamily=Times New Roman;" parent="lXRl14nX80XDygqNHP0N-2" edge="1">
          <mxGeometry width="50" height="50" relative="1" as="geometry">
            <mxPoint y="960" as="sourcePoint" />
            <mxPoint y="10" as="targetPoint" />
          </mxGeometry>
        </mxCell>
        <mxCell id="lXRl14nX80XDygqNHP0N-91" value="" style="endArrow=none;html=1;rounded=0;fontSize=14;fontFamily=Times New Roman;" parent="lXRl14nX80XDygqNHP0N-2" edge="1">
          <mxGeometry width="50" height="50" relative="1" as="geometry">
            <mxPoint x="80" y="990" as="sourcePoint" />
            <mxPoint x="80" as="targetPoint" />
          </mxGeometry>
        </mxCell>
        <mxCell id="lXRl14nX80XDygqNHP0N-18" value="" style="endArrow=none;html=1;rounded=0;fontSize=14;fontFamily=Times New Roman;" parent="lXRl14nX80XDygqNHP0N-2" edge="1">
          <mxGeometry width="50" height="50" relative="1" as="geometry">
            <mxPoint x="40" y="320" as="sourcePoint" />
            <mxPoint x="80" y="320" as="targetPoint" />
          </mxGeometry>
        </mxCell>
        <mxCell id="PAPtGzIZYBixMH-nspv7-2" value="" style="endArrow=none;dashed=1;html=1;dashPattern=1 3;strokeWidth=2;rounded=0;fontSize=14;fontFamily=Times New Roman;" parent="lXRl14nX80XDygqNHP0N-2" edge="1">
          <mxGeometry width="50" height="50" relative="1" as="geometry">
            <mxPoint x="88" y="640" as="sourcePoint" />
            <mxPoint x="2390" y="640" as="targetPoint" />
          </mxGeometry>
        </mxCell>
        <mxCell id="PAPtGzIZYBixMH-nspv7-1" value="" style="endArrow=none;dashed=1;html=1;dashPattern=1 3;strokeWidth=2;rounded=0;fontSize=14;fontFamily=Times New Roman;" parent="lXRl14nX80XDygqNHP0N-2" edge="1">
          <mxGeometry width="50" height="50" relative="1" as="geometry">
            <mxPoint x="89" y="320" as="sourcePoint" />
            <mxPoint x="2390" y="320" as="targetPoint" />
          </mxGeometry>
        </mxCell>
        <mxCell id="zuz1BJk3kpaSrDafjvJY-4" value="" style="rounded=1;whiteSpace=wrap;html=1;fontSize=14;fontFamily=Times New Roman;" parent="lXRl14nX80XDygqNHP0N-2" vertex="1">
          <mxGeometry x="740" y="498" width="180" height="90" as="geometry" />
        </mxCell>
        <mxCell id="zuz1BJk3kpaSrDafjvJY-6" style="edgeStyle=orthogonalEdgeStyle;rounded=0;orthogonalLoop=1;jettySize=auto;html=1;entryX=0.015;entryY=0.538;entryDx=0;entryDy=0;entryPerimeter=0;" parent="lXRl14nX80XDygqNHP0N-2" source="zuz1BJk3kpaSrDafjvJY-4" target="lXRl14nX80XDygqNHP0N-62" edge="1">
          <mxGeometry relative="1" as="geometry" />
        </mxCell>
        <mxCell id="zuz1BJk3kpaSrDafjvJY-68" value="&lt;span&gt;Ликвидация академических задолженностей&lt;/span&gt;" style="text;html=1;align=center;verticalAlign=middle;whiteSpace=wrap;rounded=0;fontSize=14;fontFamily=Times New Roman;" parent="lXRl14nX80XDygqNHP0N-2" vertex="1">
          <mxGeometry x="780" y="525" width="150" height="30" as="geometry" />
        </mxCell>
        <mxCell id="zuz1BJk3kpaSrDafjvJY-69" value="" style="shape=image;html=1;verticalAlign=top;verticalLabelPosition=bottom;labelBackgroundColor=#ffffff;imageAspect=0;aspect=fixed;image=https://cdn0.iconfinder.com/data/icons/phosphor-fill-vol-3/256/hand-fill-128.png;direction=south;fontSize=14;fontFamily=Times New Roman;" parent="lXRl14nX80XDygqNHP0N-2" vertex="1">
          <mxGeometry x="747" y="514" width="58" height="58" as="geometry" />
        </mxCell>
        <mxCell id="t-Ad2HWrcUex2jGAyZYw-3" style="edgeStyle=orthogonalEdgeStyle;rounded=0;orthogonalLoop=1;jettySize=auto;html=1;entryX=0;entryY=0.5;entryDx=0;entryDy=0;" parent="lXRl14nX80XDygqNHP0N-2" source="t-Ad2HWrcUex2jGAyZYw-1" target="lXRl14nX80XDygqNHP0N-88" edge="1">
          <mxGeometry relative="1" as="geometry">
            <Array as="points">
              <mxPoint x="2150" y="820" />
            </Array>
          </mxGeometry>
        </mxCell>
        <mxCell id="t-Ad2HWrcUex2jGAyZYw-1" value="" style="rounded=1;whiteSpace=wrap;html=1;fontSize=14;fontFamily=Times New Roman;" parent="lXRl14nX80XDygqNHP0N-2" vertex="1">
          <mxGeometry x="2060" y="503" width="180" height="90" as="geometry" />
        </mxCell>
        <mxCell id="t-Ad2HWrcUex2jGAyZYw-4" value="&lt;span style=&quot;text-align: start; caret-color: rgb(51, 144, 236); white-space-collapse: preserve; background-color: rgb(255, 255, 255);&quot;&gt;Формируется документ &quot;Протокол заседания комиссии&quot;&lt;/span&gt;" style="text;html=1;align=center;verticalAlign=middle;whiteSpace=wrap;rounded=0;fontSize=14;fontFamily=Times New Roman;" parent="lXRl14nX80XDygqNHP0N-2" vertex="1">
          <mxGeometry x="2116" y="531" width="124" height="30" as="geometry" />
        </mxCell>
        <mxCell id="t-Ad2HWrcUex2jGAyZYw-5" value="" style="shape=image;html=1;verticalAlign=top;verticalLabelPosition=bottom;labelBackgroundColor=#ffffff;imageAspect=0;aspect=fixed;image=https://cdn0.iconfinder.com/data/icons/phosphor-fill-vol-3/256/hand-fill-128.png;direction=south;fontSize=14;fontFamily=Times New Roman;" parent="lXRl14nX80XDygqNHP0N-2" vertex="1">
          <mxGeometry x="2066" y="517" width="58" height="58" as="geometry" />
        </mxCell>
        <mxCell id="3BJ7yH6oTVNNWNUfaO-R-65" style="edgeStyle=orthogonalEdgeStyle;rounded=0;orthogonalLoop=1;jettySize=auto;html=1;entryX=0.001;entryY=0.511;entryDx=0;entryDy=0;entryPerimeter=0;" parent="lXRl14nX80XDygqNHP0N-2" source="3BJ7yH6oTVNNWNUfaO-R-2" target="zuz1BJk3kpaSrDafjvJY-4" edge="1">
          <mxGeometry relative="1" as="geometry" />
        </mxCell>
        <mxCell id="3BJ7yH6oTVNNWNUfaO-R-2" value="" style="rounded=1;whiteSpace=wrap;html=1;fontSize=14;fontFamily=Times New Roman;" parent="lXRl14nX80XDygqNHP0N-2" vertex="1">
          <mxGeometry x="490" y="499" width="180" height="90" as="geometry" />
        </mxCell>
        <mxCell id="3BJ7yH6oTVNNWNUfaO-R-61" value="" style="shape=actor;whiteSpace=wrap;html=1;fillColor=#000000;fontSize=14;fontFamily=Times New Roman;" parent="lXRl14nX80XDygqNHP0N-2" vertex="1">
          <mxGeometry x="497" y="513" width="40" height="60" as="geometry" />
        </mxCell>
        <mxCell id="3BJ7yH6oTVNNWNUfaO-R-62" value="&lt;font&gt;&lt;span&gt;Формируется документ &quot;Приказ о назначении комиссии по ликвидации задолженностей&quot;&lt;/span&gt;&lt;/font&gt;" style="text;html=1;align=center;verticalAlign=middle;whiteSpace=wrap;rounded=0;fontSize=14;fontFamily=Times New Roman;" parent="lXRl14nX80XDygqNHP0N-2" vertex="1">
          <mxGeometry x="520" y="528" width="150" height="30" as="geometry" />
        </mxCell>
        <mxCell id="3BJ7yH6oTVNNWNUfaO-R-64" style="edgeStyle=orthogonalEdgeStyle;rounded=0;orthogonalLoop=1;jettySize=auto;html=1;entryX=-0.001;entryY=0.485;entryDx=0;entryDy=0;entryPerimeter=0;" parent="lXRl14nX80XDygqNHP0N-2" source="lXRl14nX80XDygqNHP0N-33" target="3BJ7yH6oTVNNWNUfaO-R-2" edge="1">
          <mxGeometry relative="1" as="geometry" />
        </mxCell>
      </root>
    </mxGraphModel>
  </diagram>
</mxfile>
